# xmcd CD database file
#
# Track frame offsets:
#	150
#	20792
#	46162
#	71258
#
# Disc length: 1237 seconds
#
# Revision: 0
# Processed by: cddbd v1.5.1PL0 Copyright (c) Steve Scherf et al.
# Submitted via: CDex 1.51
#
DISCID=2c04d304
DTITLE=Jolly Jelly Fish - うらもの
DYEAR=2002
DGENRE=JPop
TTITLE0=Simple
TTITLE1=どんなふうに･･･
TTITLE2=やさしい人
TTITLE3=LEO
EXTD=YEAR: 2002
EXTT0=
EXTT1=
EXTT2=
EXTT3=
PLAYORDER=
